# xmcd
#
# Track frame offsets:
# 150
# 9186
# 33073
# 53639
# 73042
# 87650
# 108481
# 130315
# 150160
# 172413
# 195753
# 217655
# 231164
# 249181
# 274914
# 293202
# 316008
# 335567
#
# Disc length: 4730 seconds
#
# Revision: 0
# Processed by: cddbd v1.5.1PL0 Copyright (c) Steve Scherf et al.
# Submitted via: Audion 3.0.2 (http://www.panic.com/audion/)
#
DISCID=ec127812
DTITLE=ezhese - 43zt
DYEAR=1900
DGENRE=
TTITLE0=1
TTITLE1=2
TTITLE2=3
TTITLE3=4
TTITLE4=56
TTITLE5=7
TTITLE6=8
TTITLE7=0
TTITLE8=12
TTITLE9=13
TTITLE10=14
TTITLE11=15
TTITLE12=16
TTITLE13=56
TTITLE14=67
TTITLE15=89
TTITLE16=90
TTITLE17=54
EXTD=
EXTT0=
EXTT1=
EXTT2=
EXTT3=
EXTT4=
EXTT5=
EXTT6=
EXTT7=
EXTT8=
EXTT9=
EXTT10=
EXTT11=
EXTT12=
EXTT13=
EXTT14=
EXTT15=
EXTT16=
EXTT17=
PLAYORDER=
